<?xml version="1.0" encoding="UTF-8" standalone="no"?>
<!-- Created with Inkscape (http://www.inkscape.org/) -->

<svg
   xmlns:osb="http://www.openswatchbook.org/uri/2009/osb"
   xmlns:dc="http://purl.org/dc/elements/1.1/"
   xmlns:cc="http://creativecommons.org/ns#"
   xmlns:rdf="http://www.w3.org/1999/02/22-rdf-syntax-ns#"
   xmlns:svg="http://www.w3.org/2000/svg"
   xmlns="http://www.w3.org/2000/svg"
   xmlns:sodipodi="http://sodipodi.sourceforge.net/DTD/sodipodi-0.dtd"
   xmlns:inkscape="http://www.inkscape.org/namespaces/inkscape"
   width="210mm"
   height="297mm"
   viewBox="0 0 744.09448819 1052.3622047"
   id="svg26559"
   version="1.1"
   inkscape:version="0.91 r13725"
   sodipodi:docname="dux.svg">
  <defs
     id="defs26561">
    <linearGradient
       id="linearGradient27421"
       osb:paint="solid">
      <stop
         style="stop-color:#000000;stop-opacity:1;"
         offset="0"
         id="stop27423" />
    </linearGradient>
  </defs>
  <sodipodi:namedview
     id="base"
     pagecolor="#ffffff"
     bordercolor="#666666"
     borderopacity="1.0"
     inkscape:pageopacity="0.0"
     inkscape:pageshadow="2"
     inkscape:zoom="11.2"
     inkscape:cx="163.66116"
     inkscape:cy="860.54935"
     inkscape:document-units="px"
     inkscape:current-layer="g26767"
     showgrid="false"
     inkscape:object-paths="true"
     inkscape:snap-to-guides="true"
     inkscape:window-width="3775"
     inkscape:window-height="2136"
     inkscape:window-x="65"
     inkscape:window-y="24"
     inkscape:window-maximized="1" />
  <metadata
     id="metadata26564">
    <rdf:RDF>
      <cc:Work
         rdf:about="">
        <dc:format>image/svg+xml</dc:format>
        <dc:type
           rdf:resource="http://purl.org/dc/dcmitype/StillImage" />
        <dc:title></dc:title>
      </cc:Work>
    </rdf:RDF>
  </metadata>
  <g
     inkscape:label="Layer 1"
     inkscape:groupmode="layer"
     id="layer1">
    <g
       transform="translate(179.72087,153.66703)"
       id="g26767">
      <g
         transform="matrix(-1,0,0,1,48.600987,-0.75761452)"
         id="g27451"
         style="stroke:#000000;stroke-width:0.5;stroke-miterlimit:4;stroke-dasharray:none;stroke-opacity:1">
        <g
           id="g27453"
           style="stroke:#000000;stroke-width:0.5;stroke-miterlimit:4;stroke-dasharray:none;stroke-opacity:1">
          <path
             inkscape:connector-curvature="0"
             d="m 50,26.001 c 0,0 -4,-2 -4,-4 0,-4 4,-2 8,-8 C 54,14.001 52,0 38,0 26,0 22,10.001 22,16.001 c 0,10 6,10 6,16 0,2 -2,4 -8,4 -10,0 1.152288,-6.211928 1.152288,-6.211928 C 21.152288,29.789072 0,30.001 0,40.001 c 0,12 8,24 26,24 l 10,0 c 6,0 18,-8 18,-18 0,-10 -6,-10 -6,-14 0,-4 2,-6 2,-6 z"
             style="fill:#ffcc66;stroke:#000000;stroke-width:0.5;stroke-miterlimit:4;stroke-dasharray:none;stroke-opacity:1"
             id="path27455"
             sodipodi:nodetypes="cscsssscsssssc" />
        </g>
      </g>
      <g
         transform="matrix(-1,0,0,1,48.600987,-0.75761452)"
         id="g27457"
         style="stroke:#000000;stroke-width:0.5;stroke-miterlimit:4;stroke-dasharray:none;stroke-opacity:1">
        <g
           id="g27459"
           style="stroke:#000000;stroke-width:0.5;stroke-miterlimit:4;stroke-dasharray:none;stroke-opacity:1">
          <path
             inkscape:connector-curvature="0"
             d="m 60,16.001 c -4,0 -6,-2 -6,-2 -4,6 -8,4 -8,8 0,2 4,4 4,4 4,0 4.656089,-3.979695 4.656089,-5.979695 C 54.656089,18.021305 62,16.001 60,16.001 Z"
             style="fill:#ff8833;stroke:#000000;stroke-width:0.5;stroke-miterlimit:4;stroke-dasharray:none;stroke-opacity:1"
             id="path27461"
             sodipodi:nodetypes="scscss" />
        </g>
      </g>
      <g
         id="g26769"
         style="stroke:#000000;stroke-opacity:1;stroke-width:0.5;stroke-miterlimit:4;stroke-dasharray:none">
        <g
           id="g26771"
           style="stroke:#000000;stroke-opacity:1;stroke-width:0.5;stroke-miterlimit:4;stroke-dasharray:none">
          <path
             inkscape:connector-curvature="0"
             d="m 50,26.001 c 0,0 -4,-2 -4,-4 0,-4 4,-2 8,-8 C 54,14.001 52,0 38,0 26,0 22,10.001 22,16.001 c 0,10 6,10 6,16 0,2 -2,4 -8,4 -10,0 1.152288,-6.211928 1.152288,-6.211928 C 21.152288,29.789072 0,30.001 0,40.001 c 0,12 8,24 26,24 l 10,0 c 6,0 18,-8 18,-18 0,-10 -6,-10 -6,-14 0,-4 2,-6 2,-6 z"
             style="fill:#ffcc66;stroke:#000000;stroke-opacity:1;stroke-width:0.5;stroke-miterlimit:4;stroke-dasharray:none"
             id="path26773"
             sodipodi:nodetypes="cscsssscsssssc" />
        </g>
      </g>
      <g
         transform="matrix(-1,0,0,1,48.600987,-0.75761452)"
         id="g27463">
        <g
           id="g27465">
          <path
             style="fill:#666666"
             id="path27467"
             sodipodi:type="arc"
             sodipodi:cx="48"
             sodipodi:cy="12.001"
             sodipodi:rx="2"
             sodipodi:ry="2"
             sodipodi:start="0"
             sodipodi:end="3.1322186"
             d="m 50,12.001 a 2,2 0 0 1 -1.990626,1.999978 2,2 0 0 1 -2.009286,-1.98123 L 48,12.001 Z" />
        </g>
      </g>
      <g
         id="g26775"
         style="stroke:#000000;stroke-opacity:1;stroke-width:0.5;stroke-miterlimit:4;stroke-dasharray:none">
        <g
           id="g26777"
           style="stroke:#000000;stroke-opacity:1;stroke-width:0.5;stroke-miterlimit:4;stroke-dasharray:none">
          <path
             inkscape:connector-curvature="0"
             d="m 60,16.001 c -4,0 -6,-2 -6,-2 -4,6 -8,4 -8,8 0,2 4,4 4,4 4,0 4.656089,-3.979695 4.656089,-5.979695 C 54.656089,18.021305 62,16.001 60,16.001 Z"
             style="fill:#ff8833;stroke:#000000;stroke-opacity:1;stroke-width:0.5;stroke-miterlimit:4;stroke-dasharray:none"
             id="path26779"
             sodipodi:nodetypes="scscss" />
        </g>
      </g>
      <g
         id="g26781">
        <g
           id="g26783">
          <path
             style="fill:#666666"
             id="circle26785"
             sodipodi:type="arc"
             sodipodi:cx="48"
             sodipodi:cy="12.001"
             sodipodi:rx="2"
             sodipodi:ry="2"
             sodipodi:start="0"
             sodipodi:end="3.1322186"
             d="m 50,12.001 a 2,2 0 0 1 -1.990626,1.999978 2,2 0 0 1 -2.009286,-1.98123 L 48,12.001 Z" />
        </g>
      </g>
      <g
         id="g26787" />
      <g
         id="g26789" />
      <g
         id="g26791" />
      <g
         id="g26793" />
      <g
         id="g26795" />
      <g
         id="g26797" />
      <g
         id="g26799" />
      <g
         id="g26801" />
      <g
         id="g26803" />
      <g
         id="g26805" />
      <g
         id="g26807" />
      <g
         id="g26809" />
      <g
         id="g26811" />
      <g
         id="g26813" />
      <g
         id="g26815" />
      <g
         style="stroke:#000000;stroke-width:0.5;stroke-miterlimit:4;stroke-dasharray:none;stroke-opacity:1"
         id="g27433"
         transform="translate(-15.278557,13.131983)">
        <g
           style="stroke:#000000;stroke-width:0.5;stroke-miterlimit:4;stroke-dasharray:none;stroke-opacity:1"
           id="g27435">
          <path
             sodipodi:nodetypes="cscsssscsssssc"
             id="path27437"
             style="fill:#ffcc66;stroke:#000000;stroke-width:0.5;stroke-miterlimit:4;stroke-dasharray:none;stroke-opacity:1"
             d="m 50,26.001 c 0,0 -4,-2 -4,-4 0,-4 4,-2 8,-8 C 54,14.001 52,0 38,0 26,0 22,10.001 22,16.001 c 0,10 6,10 6,16 0,2 -2,4 -8,4 -10,0 1.152288,-6.211928 1.152288,-6.211928 C 21.152288,29.789072 0,30.001 0,40.001 c 0,12 8,24 26,24 l 10,0 c 6,0 18,-8 18,-18 0,-10 -6,-10 -6,-14 0,-4 2,-6 2,-6 z"
             inkscape:connector-curvature="0" />
        </g>
      </g>
      <g
         style="stroke:#000000;stroke-width:0.5;stroke-miterlimit:4;stroke-dasharray:none;stroke-opacity:1"
         id="g27439"
         transform="translate(-15.278557,13.131983)">
        <g
           style="stroke:#000000;stroke-width:0.5;stroke-miterlimit:4;stroke-dasharray:none;stroke-opacity:1"
           id="g27441">
          <path
             sodipodi:nodetypes="scscss"
             id="path27443"
             style="fill:#ff8833;stroke:#000000;stroke-width:0.5;stroke-miterlimit:4;stroke-dasharray:none;stroke-opacity:1"
             d="m 60,16.001 c -4,0 -6,-2 -6,-2 -4,6 -8,4 -8,8 0,2 4,4 4,4 4,0 4.656089,-3.979695 4.656089,-5.979695 C 54.656089,18.021305 62,16.001 60,16.001 Z"
             inkscape:connector-curvature="0" />
        </g>
      </g>
      <g
         id="g27445"
         transform="translate(-15.278557,13.131983)">
        <g
           id="g27447">
          <path
             d="m 50,12.001 a 2,2 0 0 1 -1.990626,1.999978 2,2 0 0 1 -2.009286,-1.98123 L 48,12.001 Z"
             sodipodi:end="3.1322186"
             sodipodi:start="0"
             sodipodi:ry="2"
             sodipodi:rx="2"
             sodipodi:cy="12.001"
             sodipodi:cx="48"
             sodipodi:type="arc"
             id="path27449"
             style="fill:#666666" />
        </g>
      </g>
    </g>
  </g>
</svg>
