<?xml version="1.0" encoding="UTF-8" standalone="no"?>
<!-- Created with Inkscape (http://www.inkscape.org/) -->

<svg
   xmlns:osb="http://www.openswatchbook.org/uri/2009/osb"
   xmlns:dc="http://purl.org/dc/elements/1.1/"
   xmlns:cc="http://creativecommons.org/ns#"
   xmlns:rdf="http://www.w3.org/1999/02/22-rdf-syntax-ns#"
   xmlns:svg="http://www.w3.org/2000/svg"
   xmlns="http://www.w3.org/2000/svg"
   xmlns:sodipodi="http://sodipodi.sourceforge.net/DTD/sodipodi-0.dtd"
   xmlns:inkscape="http://www.inkscape.org/namespaces/inkscape"
   width="216.79242mm"
   height="159.58771mm"
   viewBox="0 0 768.16211 565.46825"
   id="svg26559"
   version="1.1"
   inkscape:version="0.91 r13725"
   sodipodi:docname="threedux.svg"
   inkscape:export-filename="/home/ahmad/code/cs/sp/seedux/assets/threedux.png"
   inkscape:export-xdpi="90"
   inkscape:export-ydpi="90">
  <defs
     id="defs26561">
    <linearGradient
       id="linearGradient27421"
       osb:paint="solid">
      <stop
         style="stop-color:#000000;stop-opacity:1;"
         offset="0"
         id="stop27423" />
    </linearGradient>
  </defs>
  <sodipodi:namedview
     id="base"
     pagecolor="#ffffff"
     bordercolor="#666666"
     borderopacity="1.0"
     inkscape:pageopacity="0.0"
     inkscape:pageshadow="2"
     inkscape:zoom="0.7"
     inkscape:cx="296.65103"
     inkscape:cy="477.97884"
     inkscape:document-units="px"
     inkscape:current-layer="g26767"
     showgrid="false"
     inkscape:object-paths="true"
     inkscape:snap-to-guides="true"
     inkscape:window-width="1871"
     inkscape:window-height="1062"
     inkscape:window-x="3889"
     inkscape:window-y="18"
     inkscape:window-maximized="1"
     fit-margin-top="0.6"
     fit-margin-left="0.5"
     fit-margin-bottom="0.5"
     fit-margin-right="0.5" />
  <metadata
     id="metadata26564">
    <rdf:RDF>
      <cc:Work
         rdf:about="">
        <dc:format>image/svg+xml</dc:format>
        <dc:type
           rdf:resource="http://purl.org/dc/dcmitype/StillImage" />
        <dc:title></dc:title>
      </cc:Work>
    </rdf:RDF>
  </metadata>
  <g
     inkscape:label="Layer 1"
     inkscape:groupmode="layer"
     id="layer1"
     transform="translate(-3.2159107,-486.7587)">
    <g
       transform="translate(179.72087,153.66703)"
       id="g26767">
      <g
         id="g26787" />
      <g
         id="g26789" />
      <g
         id="g26791" />
      <g
         id="g26793" />
      <g
         id="g26795" />
      <g
         id="g26797" />
      <g
         id="g26799" />
      <g
         id="g26801" />
      <g
         id="g26803" />
      <g
         id="g26805" />
      <g
         id="g26807" />
      <g
         id="g26809" />
      <g
         id="g26811" />
      <g
         id="g26813" />
      <g
         id="g26815" />
      <g
         id="g22987"
         transform="translate(-28.571428,60)">
        <g
           inkscape:transform-center-y="24.285714"
           inkscape:transform-center-x="-85.665382"
           transform="matrix(8.8959112,0,0,8.5734982,-143.9379,280.21817)"
           id="g22989"
           style="stroke:#000000;stroke-width:0.5;stroke-miterlimit:4;stroke-dasharray:none;stroke-opacity:1">
          <g
             id="g22991"
             style="stroke:#000000;stroke-width:0.5;stroke-miterlimit:4;stroke-dasharray:none;stroke-opacity:1">
            <path
               inkscape:connector-curvature="0"
               d="m 50,26.001 c 0,0 -4,-2 -4,-4 0,-4 4,-2 8,-8 C 54,14.001 52,0 38,0 26,0 22,10.001 22,16.001 c 0,10 6,10 6,16 0,2 -2,4 -8,4 C 10,36.001 2.6847347,27.789555 2.6847347,27.789555 2.6847347,27.789555 0,30.001 0,40.001 c 0,12 8,24 26,24 l 10,0 c 6,0 18,-8 18,-18 0,-10 -6,-10 -6,-14 0,-4 2,-6 2,-6 z"
               style="fill:#ffcc66;stroke:#000000;stroke-width:0.5;stroke-miterlimit:4;stroke-dasharray:none;stroke-opacity:1"
               id="path22993"
               sodipodi:nodetypes="cscsssscsssssc" />
          </g>
        </g>
        <g
           style="stroke:#000000;stroke-width:0.5;stroke-miterlimit:4;stroke-dasharray:none;stroke-opacity:1"
           id="g22995"
           transform="matrix(8.8959112,0,0,8.5734982,-143.9379,280.21817)">
          <g
             style="stroke:#000000;stroke-width:0.5;stroke-miterlimit:4;stroke-dasharray:none;stroke-opacity:1"
             id="g22997">
            <path
               sodipodi:nodetypes="scscss"
               id="path22999"
               style="fill:#ff8833;stroke:#000000;stroke-width:0.5;stroke-miterlimit:4;stroke-dasharray:none;stroke-opacity:1"
               d="m 60,16.001 c -4,0 -6,-2 -6,-2 -4,6 -8,4 -8,8 0,2 4,4 4,4 4,0 -1.200356,-4.199236 4.656089,-5.979695 C 61.587958,17.913899 62,16.001 60,16.001 Z"
               inkscape:connector-curvature="0" />
          </g>
        </g>
        <ellipse
           style="fill:#000000;fill-opacity:1;stroke:#007700;stroke-width:0.5;stroke-linecap:butt;stroke-miterlimit:4;stroke-dasharray:none;stroke-opacity:1"
           id="ellipse23001"
           cx="246.02937"
           cy="387.78873"
           rx="21.628834"
           ry="19.641775" />
        <ellipse
           ry="19.641775"
           rx="21.628834"
           cy="387.78873"
           cx="246.02937"
           id="ellipse23003"
           style="fill:#000000;fill-opacity:1;stroke:#007700;stroke-width:0.5;stroke-linecap:butt;stroke-miterlimit:4;stroke-dasharray:none;stroke-opacity:1" />
        <ellipse
           ry="19.641775"
           rx="21.628834"
           cy="387.78873"
           cx="246.02937"
           id="ellipse23005"
           style="fill:#000000;fill-opacity:1;stroke:#007700;stroke-width:0.5;stroke-linecap:butt;stroke-miterlimit:4;stroke-dasharray:none;stroke-opacity:1" />
        <ellipse
           style="fill:#000000;fill-opacity:1;stroke:#007700;stroke-width:0.5;stroke-linecap:butt;stroke-miterlimit:4;stroke-dasharray:none;stroke-opacity:1"
           id="ellipse23007"
           cx="246.02937"
           cy="387.78873"
           rx="21.628834"
           ry="19.641775" />
      </g>
      <g
         id="g22975"
         transform="translate(68.571429,57.14286)">
        <g
           style="stroke:#000000;stroke-width:0.5;stroke-miterlimit:4;stroke-dasharray:none;stroke-opacity:1"
           id="g22919"
           transform="matrix(8.8959112,0,0,8.5734982,-143.9379,280.21817)"
           inkscape:transform-center-x="-85.665382"
           inkscape:transform-center-y="24.285714">
          <g
             style="stroke:#000000;stroke-width:0.5;stroke-miterlimit:4;stroke-dasharray:none;stroke-opacity:1"
             id="g22921">
            <path
               sodipodi:nodetypes="cscsssscsssssc"
               id="path22923"
               style="fill:#ffcc66;stroke:#000000;stroke-width:0.5;stroke-miterlimit:4;stroke-dasharray:none;stroke-opacity:1"
               d="m 50,26.001 c 0,0 -4,-2 -4,-4 0,-4 4,-2 8,-8 C 54,14.001 52,0 38,0 26,0 22,10.001 22,16.001 c 0,10 6,10 6,16 0,2 -2,4 -8,4 C 10,36.001 2.6847347,27.789555 2.6847347,27.789555 2.6847347,27.789555 0,30.001 0,40.001 c 0,12 8,24 26,24 l 10,0 c 6,0 18,-8 18,-18 0,-10 -6,-10 -6,-14 0,-4 2,-6 2,-6 z"
               inkscape:connector-curvature="0" />
          </g>
        </g>
        <g
           transform="matrix(8.8959112,0,0,8.5734982,-143.9379,280.21817)"
           id="g27439"
           style="stroke:#000000;stroke-width:0.5;stroke-miterlimit:4;stroke-dasharray:none;stroke-opacity:1">
          <g
             id="g27441"
             style="stroke:#000000;stroke-width:0.5;stroke-miterlimit:4;stroke-dasharray:none;stroke-opacity:1">
            <path
               inkscape:connector-curvature="0"
               d="m 60,16.001 c -4,0 -6,-2 -6,-2 -4,6 -8,4 -8,8 0,2 4,4 4,4 4,0 -1.200356,-4.199236 4.656089,-5.979695 C 61.587958,17.913899 62,16.001 60,16.001 Z"
               style="fill:#ff8833;stroke:#000000;stroke-width:0.5;stroke-miterlimit:4;stroke-dasharray:none;stroke-opacity:1"
               id="path27443"
               sodipodi:nodetypes="scscss" />
          </g>
        </g>
        <ellipse
           ry="19.641775"
           rx="21.628834"
           cy="387.78873"
           cx="246.02937"
           id="path22907"
           style="fill:#000000;fill-opacity:1;stroke:#007700;stroke-width:0.5;stroke-linecap:butt;stroke-miterlimit:4;stroke-dasharray:none;stroke-opacity:1" />
        <ellipse
           style="fill:#000000;fill-opacity:1;stroke:#007700;stroke-width:0.5;stroke-linecap:butt;stroke-miterlimit:4;stroke-dasharray:none;stroke-opacity:1"
           id="ellipse22915"
           cx="246.02937"
           cy="387.78873"
           rx="21.628834"
           ry="19.641775" />
        <ellipse
           style="fill:#000000;fill-opacity:1;stroke:#007700;stroke-width:0.5;stroke-linecap:butt;stroke-miterlimit:4;stroke-dasharray:none;stroke-opacity:1"
           id="ellipse22931"
           cx="246.02937"
           cy="387.78873"
           rx="21.628834"
           ry="19.641775" />
        <ellipse
           ry="19.641775"
           rx="21.628834"
           cy="387.78873"
           cx="246.02937"
           id="ellipse22933"
           style="fill:#000000;fill-opacity:1;stroke:#007700;stroke-width:0.5;stroke-linecap:butt;stroke-miterlimit:4;stroke-dasharray:none;stroke-opacity:1" />
      </g>
      <g
         transform="translate(188.57143,65.71429)"
         id="g23009">
        <g
           style="stroke:#000000;stroke-width:0.5;stroke-miterlimit:4;stroke-dasharray:none;stroke-opacity:1"
           id="g23011"
           transform="matrix(8.8959112,0,0,8.5734982,-143.9379,280.21817)"
           inkscape:transform-center-x="-85.665382"
           inkscape:transform-center-y="24.285714">
          <g
             style="stroke:#000000;stroke-width:0.5;stroke-miterlimit:4;stroke-dasharray:none;stroke-opacity:1"
             id="g23013">
            <path
               sodipodi:nodetypes="cscsssscsssssc"
               id="path23015"
               style="fill:#ffcc66;stroke:#000000;stroke-width:0.5;stroke-miterlimit:4;stroke-dasharray:none;stroke-opacity:1"
               d="m 50,26.001 c 0,0 -4,-2 -4,-4 0,-4 4,-2 8,-8 C 54,14.001 52,0 38,0 26,0 22,10.001 22,16.001 c 0,10 6,10 6,16 0,2 -2,4 -8,4 C 10,36.001 2.6847347,27.789555 2.6847347,27.789555 2.6847347,27.789555 0,30.001 0,40.001 c 0,12 8,24 26,24 l 10,0 c 6,0 18,-8 18,-18 0,-10 -6,-10 -6,-14 0,-4 2,-6 2,-6 z"
               inkscape:connector-curvature="0" />
          </g>
        </g>
        <g
           transform="matrix(8.8959112,0,0,8.5734982,-143.9379,280.21817)"
           id="g23017"
           style="stroke:#000000;stroke-width:0.5;stroke-miterlimit:4;stroke-dasharray:none;stroke-opacity:1">
          <g
             id="g23019"
             style="stroke:#000000;stroke-width:0.5;stroke-miterlimit:4;stroke-dasharray:none;stroke-opacity:1">
            <path
               inkscape:connector-curvature="0"
               d="m 60,16.001 c -4,0 -6,-2 -6,-2 -4,6 -8,4 -8,8 0,2 4,4 4,4 4,0 -1.200356,-4.199236 4.656089,-5.979695 C 61.587958,17.913899 62,16.001 60,16.001 Z"
               style="fill:#ff8833;stroke:#000000;stroke-width:0.5;stroke-miterlimit:4;stroke-dasharray:none;stroke-opacity:1"
               id="path23021"
               sodipodi:nodetypes="scscss" />
          </g>
        </g>
        <ellipse
           ry="19.641775"
           rx="21.628834"
           cy="387.78873"
           cx="246.02937"
           id="ellipse23023"
           style="fill:#000000;fill-opacity:1;stroke:#007700;stroke-width:0.5;stroke-linecap:butt;stroke-miterlimit:4;stroke-dasharray:none;stroke-opacity:1" />
        <ellipse
           style="fill:#000000;fill-opacity:1;stroke:#007700;stroke-width:0.5;stroke-linecap:butt;stroke-miterlimit:4;stroke-dasharray:none;stroke-opacity:1"
           id="ellipse23025"
           cx="246.02937"
           cy="387.78873"
           rx="21.628834"
           ry="19.641775" />
        <ellipse
           style="fill:#000000;fill-opacity:1;stroke:#007700;stroke-width:0.5;stroke-linecap:butt;stroke-miterlimit:4;stroke-dasharray:none;stroke-opacity:1"
           id="ellipse23027"
           cx="246.02937"
           cy="387.78873"
           rx="21.628834"
           ry="19.641775" />
        <ellipse
           ry="19.641775"
           rx="21.628834"
           cy="387.78873"
           cx="246.02937"
           id="ellipse23029"
           style="fill:#000000;fill-opacity:1;stroke:#007700;stroke-width:0.5;stroke-linecap:butt;stroke-miterlimit:4;stroke-dasharray:none;stroke-opacity:1" />
      </g>
    </g>
  </g>
</svg>
